<?xml version="1.0" encoding="utf-8"?>
<!-- Generator: Adobe Illustrator 19.2.1, SVG Export Plug-In . SVG Version: 6.00 Build 0)  -->
<svg version="1.1" id="Layer_1" xmlns="http://www.w3.org/2000/svg" xmlns:xlink="http://www.w3.org/1999/xlink" x="0px" y="0px"
	 viewBox="0 0 310.8 56" style="enable-background:new 0 0 310.8 56;" xml:space="preserve">
<style type="text/css">
	.st0{fill:#667175;}
	.st1{fill:#222222;}
</style>
<g>
	<g>
		<path class="st0" d="M0,11.6h3.3v32.9H0V11.6z"/>
		<path class="st0" d="M16.5,11.6h3.2l10.1,25.3l9.4-25.3h0.6l9.4,25.3l10.1-25.3h3.2L49.4,44.5h-0.6l-9.3-24.9l-9.5,24.9h-0.6
			L16.5,11.6z"/>
		<path class="st0" d="M75,11.6l14.9,32.9h-3.5l-5-10.8H67.6l-5,10.8h-3.6l15.1-32.9H75z M74.6,18.6l-5.5,11.9H80L74.6,18.6z"/>
		<path class="st0" d="M95.4,44.5V11.6h0.7L118,36.8V11.6h3.2v32.9h-0.7L98.8,19.6v24.9H95.4z"/>
		<path class="st0" d="M126.9,14.8v-3.2h20.2v3.2h-8.4v29.7h-3.4V14.8H126.9z"/>
	</g>
	<g>
		<path class="st0" d="M218.8,18.8c0.3,3-0.8,5.5-3.4,7.5c-2.6,2-5.9,3-9.9,3c-1.1,0-2.6-0.1-4.5-0.4l-3.3,11.8
			c-0.1,0.4-0.3,1.1-0.5,1.9l-0.2,0.7c0,0-0.1,0.1-0.1,0.1c0,0.2,0.2,0.3,0.6,0.3l3.6-0.1c0.3,0.1,0.5,0.2,0.5,0.4
			c0,0.3-0.2,0.5-0.7,0.5l-1.2-0.2h-9.3c-0.8,0-1.3,0-1.7,0.1c-0.3,0.1-0.4,0.1-0.3,0.1c-0.5,0-0.7-0.1-0.8-0.4
			c0-0.3,0.2-0.5,0.6-0.5c0.2,0,0.4,0,0.5,0h2.5c0.5,0,0.9-0.3,1.1-0.8c0.2-0.5,0.6-1.5,1-3l7.2-24.9c0.1-0.3,0.3-1.2,0.7-2.4
			c-0.2,0-0.4,0-0.6,0c-0.4,0-0.9,0-1.5,0.1c-0.6,0.1-1,0.1-1.1,0.1c-0.8,0-1.1-0.2-1.2-0.5c0-0.3,0.3-0.5,0.9-0.5h0.4
			c0.3,0,0.5,0,0.8,0h0.6c0.5,0,1.4,0,2.6,0c4.4,0,7.7,0.2,9.8,0.6C216.1,13.2,218.4,15.3,218.8,18.8z M214,18.2
			c-0.2-1.9-0.8-3.3-1.9-4.1c-1.1-0.8-2.7-1.3-5-1.3c-0.3,0-0.8,0-1.3,0.1l-4.5,15.1c1.6,0.3,2.9,0.5,3.7,0.5c2.6,0,4.9-1,6.7-3.2
			C213.5,23.3,214.3,20.9,214,18.2z"/>
		<path class="st0" d="M231.6,12c0,0.1,0,0.3-0.2,0.7c-0.1,0.2-0.2,0.6-0.4,1.1l-7.8,25.5c-0.6,1.9-0.8,3.1-0.8,3.7
			c0.1,0.8,0.7,1.3,1.8,1.3c1.1,0,2.2-0.6,3.2-2c0.4-0.6,0.7-0.8,0.8-0.8c0.2,0,0.3,0.1,0.4,0.3c0,0.4-0.4,1.1-1.3,2
			c-1.1,1.1-2.5,1.6-4.4,1.6c-2.5,0-3.9-0.9-4.1-2.8c-0.1-0.6,0.2-1.9,0.8-3.8l7.8-25.5c0.1-0.2,0.1-0.3,0.1-0.3
			c0-0.3-0.3-0.4-0.9-0.4c-1.4,0-2.1-0.1-2.1-0.3c0-0.2,0.1-0.2,0.4-0.2c0.3,0,0.7,0,1.3,0c0.6,0,1,0,1.3,0c1.3,0,2.3,0,3-0.1
			c0.3,0,0.6-0.1,0.7-0.1C231.4,11.6,231.6,11.7,231.6,12z"/>
		<path class="st0" d="M252.9,24.8c0,0.1-0.1,0.4-0.3,1l-4.7,13.9c-0.5,1.3-0.6,2.3-0.6,3.1c0.1,0.8,0.5,1.2,1.3,1.2
			c1.2,0,2.3-0.8,3.4-2.5c0.2-0.3,0.4-0.5,0.5-0.5c0.1,0,0.2,0.1,0.2,0.2c0,0.3-0.3,0.9-0.9,1.6c-1.2,1.5-2.8,2.2-4.7,2.2
			c-1,0-1.8-0.2-2.4-0.7c-0.7-0.5-1-1.1-1.1-1.8c0-0.5,0-1,0.2-1.6c-1.7,2.9-3.8,4.3-6.4,4.3c-1.6,0-3-0.5-4.1-1.6
			c-1.1-1-1.8-2.4-1.9-4c-0.2-1.8,0.2-3.7,1.2-5.8c1-2.1,2.3-4,4.1-5.8c2.4-2.4,4.8-3.5,7-3.5c2.3,0,3.7,1.1,4.2,3.4l0.9-2.5
			c0.2-0.5,0.4-0.7,0.6-0.7c0.1,0,0.3,0,0.6,0.1c0.3,0.1,0.5,0.1,0.7,0.1c0.7,0,1.2-0.1,1.6-0.2c0.1-0.1,0.2-0.1,0.3-0.1
			C252.8,24.5,252.9,24.6,252.9,24.8z M247.5,28.7c-0.1-1-0.5-1.7-1.1-2.3c-0.6-0.6-1.4-0.9-2.3-0.9c-1.6,0-2.9,0.9-4.2,2.7
			c-1.4,2.1-2.5,4.3-3.3,6.6c-0.8,2.3-1.1,4.3-0.9,6c0.2,2.1,1.2,3.1,2.9,3.1c1,0,2-0.5,3.1-1.6c1.1-1.1,1.9-2.4,2.5-4.1l2.8-7.8
			C247.4,29.6,247.5,29,247.5,28.7z"/>
		<path class="st0" d="M275.9,28.1c0.1,0.7-0.2,2-0.8,3.9l-2.9,8.6c-0.3,1-0.5,1.7-0.4,2c0.1,0.7,0.5,1,1.2,1c0.9,0,2.1-0.7,3.7-2.1
			c0.1-0.1,0.3-0.1,0.4-0.1c0.2,0,0.3,0.1,0.3,0.2c0,0.4-0.4,0.9-1.4,1.6c-1.3,1-2.8,1.4-4.4,1.4c-1,0-1.8-0.2-2.5-0.6
			c-0.7-0.4-1-1-1.1-1.6c-0.1-0.5,0.1-1.5,0.6-2.8l2.9-8.4c0.7-2,1-3.4,0.9-4.1c-0.1-1.1-0.7-1.6-1.8-1.6c-1.4,0-3,1-4.7,3.1
			c-1.3,1.6-2.4,3.7-3.3,6.5l-2.9,8.8c-0.1,0.5-0.3,0.7-0.5,0.7c-0.1,0-0.4,0-1,0c-0.1,0-0.3,0-0.6,0c-0.2,0-0.7,0-1.3,0
			c-0.1,0-0.2,0-0.3,0c-0.2,0-0.3-0.1-0.4-0.2c0-0.1,0-0.2,0.1-0.3l0.3-0.7l5.4-17c0.1-0.2,0.1-0.3,0.2-0.4
			c-0.1-0.2-0.5-0.3-1.2-0.4c-0.9,0-1.4-0.2-1.4-0.5c0-0.2,0.1-0.3,0.5-0.3c0.2,0,0.6,0,1,0.1c0.5,0.1,0.8,0.1,1.1,0.1
			c1.7,0,2.8-0.1,3.3-0.4c0.2-0.1,0.3-0.1,0.4-0.1c0.2,0,0.3,0.1,0.3,0.3c0,0.1,0,0.2,0,0.2l-1.3,4.4c0.2-0.3,0.5-0.7,0.9-1.2
			c2-2.5,4.1-3.7,6.3-3.7c1.2,0,2.3,0.4,3.1,1.1C275.3,26.1,275.8,27,275.9,28.1z"/>
		<path class="st0" d="M294.7,25c0,0.4-0.6,0.7-1.9,0.7H291h-0.8l-4.8,14.1c-0.5,1.5-0.8,2.5-0.7,2.9c0.1,0.6,0.6,1,1.5,1
			c1.4,0,2.6-0.7,3.5-2.2c0.2-0.3,0.4-0.5,0.5-0.5c0.2,0,0.4,0.1,0.4,0.3c0,0.4-0.4,1.1-1.3,2c-1.1,1-2.4,1.5-4.1,1.5
			c-1.1,0-2.1-0.3-2.8-0.8c-0.8-0.6-1.2-1.3-1.3-2.1c-0.1-0.6,0.2-1.6,0.8-3.1l4.8-13h-1.9c-0.5,0-0.8-0.1-0.8-0.3
			c0-0.4,0.2-0.6,0.6-0.6h0.4c0.2,0,0.4,0,0.7,0c0.4,0,0.9,0,1.3,0l0.6-2c0.2-0.7,0.4-1,0.5-1c0.2,0,0.4,0,0.7,0.1
			c0.3,0,0.6,0.1,0.8,0.1c0.3,0,0.8-0.1,1.4-0.4c0.1-0.1,0.2-0.1,0.3-0.1c0.2,0,0.2,0.1,0.2,0.2l-0.4,1.1l-0.8,2.2h1.1h1.8
			c0.2,0,0.3,0,0.5-0.1c0.2-0.1,0.3-0.1,0.4-0.1C294.5,24.7,294.6,24.8,294.7,25z"/>
		<path class="st0" d="M310.8,28.1c0.1,0.5-0.1,1-0.4,1.3c-0.3,0.4-0.7,0.6-1.2,0.6c-0.9,0-1.4-0.4-1.5-1.3
			c-0.1-0.7,0.2-1.1,0.8-1.1c0.1,0,0.2,0,0.5,0.1c0.2,0.1,0.4,0.1,0.5,0.1c0.2,0,0.3-0.1,0.2-0.3c-0.1-0.5-0.5-1-1.2-1.5
			c-0.8-0.5-1.5-0.7-2.3-0.7c-1,0-1.8,0.3-2.4,1c-0.6,0.6-0.9,1.4-0.8,2.3c0.1,0.8,1,2.9,2.8,6.5c0.4,0.8,0.7,1.8,0.8,2.8
			c0.2,2.1-0.3,3.9-1.6,5.3c-1.3,1.4-3,2.1-5.1,2.1c-1.9,0-3.5-0.5-4.8-1.6c-1.4-1-2.1-2.3-2.3-3.8c-0.1-0.9,0.1-1.6,0.6-2.1
			c0.5-0.6,1.1-0.8,1.8-0.8c0.6,0,1.1,0.2,1.6,0.6c0.5,0.4,0.7,0.9,0.8,1.4c0.1,0.9-0.3,1.4-1.2,1.4c-1,0-1.5-0.3-1.5-1
			c0-0.2,0-0.4,0.1-0.6c0.1-0.2,0.1-0.3,0.1-0.4c0-0.3-0.2-0.5-0.4-0.5c-0.3,0-0.5,0.2-0.7,0.6c-0.2,0.4-0.3,0.9-0.2,1.4
			c0.1,1.2,0.7,2.3,1.8,3.2c1.1,0.9,2.3,1.3,3.7,1.3c1.3,0,2.3-0.4,3.1-1.2c0.8-0.8,1.1-1.8,1-2.9c-0.1-0.8-0.6-2.2-1.4-4.1
			c-0.8-1.8-1.3-3.3-1.4-4.5c-0.2-2,0.2-3.7,1.3-5.1c1.1-1.4,2.5-2.1,4.3-2.1c1.2,0,2.2,0.4,3.2,1.1
			C310.2,26.3,310.7,27.1,310.8,28.1z"/>
	</g>
</g>
<polygon class="st1" points="157.7,56 152.2,56 167.3,0 172.8,0 "/>
<polygon class="st1" points="173.6,56 168.2,56 183.3,0 188.7,0 "/>
</svg>
